<svg xmlns="http://www.w3.org/2000/svg"
    xmlns:xlink="http://www.w3.org/1999/xlink" width="500" zoomAndPan="magnify" viewBox="0 0 375 374.999991" height="500" preserveAspectRatio="xMidYMid meet" version="1.0">
    <defs>
        <g/>
        <clipPath id="3fcc610797">
            <path d="M 82.339844 156.867188 L 134.453125 156.867188 L 134.453125 208.980469 L 82.339844 208.980469 Z M 82.339844 156.867188 " clip-rule="nonzero"/>
        </clipPath>
        <clipPath id="39fd420b3c">
            <path d="M 108.398438 156.867188 C 94.007812 156.867188 82.339844 168.535156 82.339844 182.925781 C 82.339844 197.316406 94.007812 208.980469 108.398438 208.980469 C 122.789062 208.980469 134.453125 197.316406 134.453125 182.925781 C 134.453125 168.535156 122.789062 156.867188 108.398438 156.867188 Z M 108.398438 156.867188 " clip-rule="nonzero"/>
        </clipPath>
        <clipPath id="bcb66a2c06">
            <path d="M 91.53125 169.71875 L 125.21875 169.71875 L 125.21875 198.511719 L 91.53125 198.511719 Z M 91.53125 169.71875 " clip-rule="nonzero"/>
        </clipPath>
        <clipPath id="f784b68398">
            <path d="M 98 167.203125 L 101 167.203125 L 101 174 L 98 174 Z M 98 167.203125 " clip-rule="nonzero"/>
        </clipPath>
        <clipPath id="75b6a3a1c9">
            <path d="M 116 167.203125 L 119 167.203125 L 119 174 L 116 174 Z M 116 167.203125 " clip-rule="nonzero"/>
        </clipPath>
    </defs>
    <g fill="#219ebc" fill-opacity="1">
        <g transform="translate(144.138965, 198.37629)">
            <g>
                <path d="M 14.28125 -25.859375 C 16.070312 -25.859375 17.65625 -25.597656 19.03125 -25.078125 C 20.40625 -24.554688 21.539062 -23.929688 22.4375 -23.203125 C 23.039062 -22.710938 23.34375 -22.082031 23.34375 -21.3125 C 23.34375 -20.582031 23.132812 -20.007812 22.71875 -19.59375 C 22.3125 -19.175781 21.71875 -18.96875 20.9375 -18.96875 C 20.550781 -18.96875 20.164062 -19.09375 19.78125 -19.34375 C 18.976562 -19.925781 18.140625 -20.375 17.265625 -20.6875 C 16.390625 -21 15.394531 -21.15625 14.28125 -21.15625 C 12 -21.15625 10.171875 -20.421875 8.796875 -18.953125 C 7.421875 -17.484375 6.734375 -15.414062 6.734375 -12.75 C 6.734375 -10.101562 7.421875 -8.035156 8.796875 -6.546875 C 10.171875 -5.066406 12 -4.328125 14.28125 -4.328125 C 15.394531 -4.328125 16.390625 -4.484375 17.265625 -4.796875 C 18.140625 -5.117188 18.976562 -5.570312 19.78125 -6.15625 C 20.164062 -6.394531 20.550781 -6.515625 20.9375 -6.515625 C 21.71875 -6.515625 22.3125 -6.304688 22.71875 -5.890625 C 23.132812 -5.484375 23.34375 -4.914062 23.34375 -4.1875 C 23.34375 -3.40625 23.039062 -2.773438 22.4375 -2.296875 C 21.539062 -1.566406 20.40625 -0.941406 19.03125 -0.421875 C 17.65625 0.0976562 16.070312 0.359375 14.28125 0.359375 C 11.726562 0.359375 9.484375 -0.171875 7.546875 -1.234375 C 5.617188 -2.304688 4.117188 -3.816406 3.046875 -5.765625 C 1.984375 -7.722656 1.453125 -10.050781 1.453125 -12.75 C 1.453125 -15.445312 1.984375 -17.773438 3.046875 -19.734375 C 4.117188 -21.703125 5.617188 -23.210938 7.546875 -24.265625 C 9.484375 -25.328125 11.726562 -25.859375 14.28125 -25.859375 Z M 14.28125 -25.859375 "/>
            </g>
        </g>
    </g>
    <g fill="#219ebc" fill-opacity="1">
        <g transform="translate(168.970651, 198.37629)">
            <g>
                <path d="M 9.875 -18.578125 C 12.539062 -18.578125 14.546875 -17.953125 15.890625 -16.703125 C 17.242188 -15.453125 17.921875 -13.648438 17.921875 -11.296875 L 17.921875 -1.828125 C 17.921875 -1.171875 17.75 -0.640625 17.40625 -0.234375 C 17.070312 0.160156 16.550781 0.359375 15.84375 0.359375 C 15.164062 0.359375 14.644531 0.160156 14.28125 -0.234375 C 13.914062 -0.640625 13.734375 -1.171875 13.734375 -1.828125 L 13.734375 -3.859375 C 13.203125 -2.546875 12.363281 -1.515625 11.21875 -0.765625 C 10.070312 -0.015625 8.664062 0.359375 7 0.359375 C 5.414062 0.359375 4.109375 -0.09375 3.078125 -1 C 2.046875 -1.914062 1.53125 -3.257812 1.53125 -5.03125 C 1.53125 -6.65625 2.003906 -7.945312 2.953125 -8.90625 C 3.898438 -9.863281 5.238281 -10.5625 6.96875 -11 C 8.707031 -11.4375 10.78125 -11.679688 13.1875 -11.734375 C 13.15625 -12.703125 12.785156 -13.425781 12.078125 -13.90625 C 11.378906 -14.394531 10.460938 -14.640625 9.328125 -14.640625 C 8.523438 -14.640625 7.765625 -14.515625 7.046875 -14.265625 C 6.328125 -14.023438 5.691406 -13.738281 5.140625 -13.40625 C 5.035156 -13.332031 4.90625 -13.285156 4.75 -13.265625 C 4.59375 -13.253906 4.441406 -13.25 4.296875 -13.25 C 3.710938 -13.25 3.238281 -13.445312 2.875 -13.84375 C 2.507812 -14.25 2.328125 -14.707031 2.328125 -15.21875 C 2.328125 -15.507812 2.414062 -15.78125 2.59375 -16.03125 C 2.78125 -16.289062 2.957031 -16.507812 3.125 -16.6875 C 3.78125 -17.238281 4.679688 -17.691406 5.828125 -18.046875 C 6.972656 -18.398438 8.320312 -18.578125 9.875 -18.578125 Z M 13.1875 -8.015625 L 13.1875 -8.453125 C 10.632812 -8.421875 8.859375 -8.171875 7.859375 -7.703125 C 6.867188 -7.234375 6.375 -6.535156 6.375 -5.609375 C 6.375 -4.929688 6.613281 -4.421875 7.09375 -4.078125 C 7.582031 -3.734375 8.15625 -3.5625 8.8125 -3.5625 C 10.03125 -3.5625 11.0625 -3.96875 11.90625 -4.78125 C 12.757812 -5.601562 13.1875 -6.679688 13.1875 -8.015625 Z M 13.1875 -8.015625 "/>
            </g>
        </g>
    </g>
    <g fill="#219ebc" fill-opacity="1">
        <g transform="translate(188.996196, 198.37629)">
            <g>
                <path d="M 4.59375 -25.859375 C 5.394531 -25.859375 6.003906 -25.625 6.421875 -25.15625 C 6.847656 -24.695312 7.0625 -24.082031 7.0625 -23.3125 L 7.0625 -2.1875 C 7.0625 -1.4375 6.847656 -0.820312 6.421875 -0.34375 C 6.003906 0.125 5.394531 0.359375 4.59375 0.359375 C 3.789062 0.359375 3.191406 0.125 2.796875 -0.34375 C 2.410156 -0.820312 2.21875 -1.4375 2.21875 -2.1875 L 2.21875 -23.3125 C 2.21875 -24.082031 2.410156 -24.695312 2.796875 -25.15625 C 3.191406 -25.625 3.789062 -25.859375 4.59375 -25.859375 Z M 4.59375 -25.859375 "/>
            </g>
        </g>
    </g>
    <g fill="#219ebc" fill-opacity="1">
        <g transform="translate(198.171542, 198.37629)">
            <g>
                <path d="M 10.640625 -18.578125 C 12.554688 -18.578125 14.191406 -18.179688 15.546875 -17.390625 C 16.910156 -16.597656 17.957031 -15.484375 18.6875 -14.046875 C 19.414062 -12.617188 19.78125 -10.9375 19.78125 -9 C 19.78125 -8.601562 19.648438 -8.25 19.390625 -7.9375 C 19.140625 -7.625 18.769531 -7.46875 18.28125 -7.46875 L 6.515625 -7.46875 C 6.785156 -6.132812 7.394531 -5.140625 8.34375 -4.484375 C 9.289062 -3.828125 10.46875 -3.5 11.875 -3.5 C 12.53125 -3.5 13.210938 -3.585938 13.921875 -3.765625 C 14.640625 -3.953125 15.195312 -4.226562 15.59375 -4.59375 C 15.925781 -4.832031 16.328125 -4.953125 16.796875 -4.953125 C 17.347656 -4.953125 17.789062 -4.765625 18.125 -4.390625 C 18.46875 -4.015625 18.640625 -3.546875 18.640625 -2.984375 C 18.640625 -2.671875 18.566406 -2.398438 18.421875 -2.171875 C 18.273438 -1.941406 18.109375 -1.753906 17.921875 -1.609375 C 17.117188 -0.953125 16.132812 -0.457031 14.96875 -0.125 C 13.800781 0.195312 12.550781 0.359375 11.21875 0.359375 C 9.082031 0.359375 7.296875 -0.03125 5.859375 -0.8125 C 4.429688 -1.601562 3.351562 -2.703125 2.625 -4.109375 C 1.894531 -5.523438 1.53125 -7.15625 1.53125 -9 C 1.53125 -10.9375 1.882812 -12.617188 2.59375 -14.046875 C 3.3125 -15.484375 4.351562 -16.597656 5.71875 -17.390625 C 7.082031 -18.179688 8.722656 -18.578125 10.640625 -18.578125 Z M 14.828125 -10.75 C 14.628906 -12.082031 14.164062 -13.078125 13.4375 -13.734375 C 12.707031 -14.390625 11.773438 -14.71875 10.640625 -14.71875 C 8.210938 -14.71875 6.816406 -13.394531 6.453125 -10.75 Z M 14.828125 -10.75 "/>
            </g>
        </g>
    </g>
    <g fill="#219ebc" fill-opacity="1">
        <g transform="translate(219.362211, 198.37629)">
            <g>
                <path d="M 4.328125 -18.578125 C 5.035156 -18.578125 5.570312 -18.375 5.9375 -17.96875 C 6.300781 -17.570312 6.484375 -17.035156 6.484375 -16.359375 L 6.484375 -15 C 6.992188 -16.125 7.726562 -17 8.6875 -17.625 C 9.644531 -18.257812 10.828125 -18.578125 12.234375 -18.578125 C 14.273438 -18.578125 15.851562 -18 16.96875 -16.84375 C 18.082031 -15.6875 18.640625 -14.03125 18.640625 -11.875 L 18.640625 -2.1875 C 18.640625 -1.4375 18.429688 -0.820312 18.015625 -0.34375 C 17.609375 0.125 17.003906 0.359375 16.203125 0.359375 C 15.398438 0.359375 14.796875 0.125 14.390625 -0.34375 C 13.992188 -0.820312 13.796875 -1.4375 13.796875 -2.1875 L 13.796875 -10.75 C 13.796875 -11.882812 13.5 -12.765625 12.90625 -13.390625 C 12.3125 -14.023438 11.484375 -14.34375 10.421875 -14.34375 C 9.367188 -14.34375 8.546875 -14.023438 7.953125 -13.390625 C 7.359375 -12.765625 7.0625 -11.882812 7.0625 -10.75 L 7.0625 -2.1875 C 7.0625 -1.4375 6.847656 -0.820312 6.421875 -0.34375 C 6.003906 0.125 5.394531 0.359375 4.59375 0.359375 C 3.789062 0.359375 3.191406 0.125 2.796875 -0.34375 C 2.410156 -0.820312 2.21875 -1.4375 2.21875 -2.1875 L 2.21875 -16.359375 C 2.21875 -17.035156 2.398438 -17.570312 2.765625 -17.96875 C 3.128906 -18.375 3.648438 -18.578125 4.328125 -18.578125 Z M 4.328125 -18.578125 "/>
            </g>
        </g>
    </g>
    <g fill="#219ebc" fill-opacity="1">
        <g transform="translate(240.043148, 198.37629)">
            <g>
                <path d="M 2.984375 -25.5 L 18 -25.5 C 18.644531 -25.5 19.195312 -25.265625 19.65625 -24.796875 C 20.125 -24.335938 20.359375 -23.78125 20.359375 -23.125 C 20.359375 -22.46875 20.125 -21.910156 19.65625 -21.453125 C 19.195312 -20.992188 18.644531 -20.765625 18 -20.765625 L 13.140625 -20.765625 L 13.140625 -2.40625 C 13.140625 -1.582031 12.914062 -0.914062 12.46875 -0.40625 C 12.019531 0.101562 11.359375 0.359375 10.484375 0.359375 C 9.609375 0.359375 8.953125 0.101562 8.515625 -0.40625 C 8.078125 -0.914062 7.859375 -1.582031 7.859375 -2.40625 L 7.859375 -20.765625 L 2.984375 -20.765625 C 2.328125 -20.765625 1.773438 -20.992188 1.328125 -21.453125 C 0.878906 -21.910156 0.65625 -22.46875 0.65625 -23.125 C 0.65625 -23.78125 0.878906 -24.335938 1.328125 -24.796875 C 1.773438 -25.265625 2.328125 -25.5 2.984375 -25.5 Z M 2.984375 -25.5 "/>
            </g>
        </g>
    </g>
    <g fill="#219ebc" fill-opacity="1">
        <g transform="translate(260.942542, 198.37629)">
            <g>
                <path d="M 4.328125 -18.578125 C 5.035156 -18.578125 5.570312 -18.375 5.9375 -17.96875 C 6.300781 -17.570312 6.484375 -17.035156 6.484375 -16.359375 L 6.484375 -14.78125 C 6.898438 -16 7.503906 -16.945312 8.296875 -17.625 C 9.097656 -18.300781 10.117188 -18.640625 11.359375 -18.640625 C 11.992188 -18.640625 12.515625 -18.445312 12.921875 -18.0625 C 13.335938 -17.675781 13.546875 -17.144531 13.546875 -16.46875 C 13.546875 -15.851562 13.335938 -15.359375 12.921875 -14.984375 C 12.515625 -14.609375 11.992188 -14.421875 11.359375 -14.421875 C 9.953125 -14.421875 8.882812 -13.90625 8.15625 -12.875 C 7.425781 -11.84375 7.0625 -10.535156 7.0625 -8.953125 L 7.0625 -2.1875 C 7.0625 -1.4375 6.847656 -0.820312 6.421875 -0.34375 C 6.003906 0.125 5.394531 0.359375 4.59375 0.359375 C 3.789062 0.359375 3.191406 0.125 2.796875 -0.34375 C 2.410156 -0.820312 2.21875 -1.4375 2.21875 -2.1875 L 2.21875 -16.359375 C 2.21875 -17.035156 2.398438 -17.570312 2.765625 -17.96875 C 3.128906 -18.375 3.648438 -18.578125 4.328125 -18.578125 Z M 4.328125 -18.578125 "/>
            </g>
        </g>
    </g>
    <g fill="#219ebc" fill-opacity="1">
        <g transform="translate(274.996835, 198.37629)">
            <g>
                <path d="M 9.875 -18.578125 C 12.539062 -18.578125 14.546875 -17.953125 15.890625 -16.703125 C 17.242188 -15.453125 17.921875 -13.648438 17.921875 -11.296875 L 17.921875 -1.828125 C 17.921875 -1.171875 17.75 -0.640625 17.40625 -0.234375 C 17.070312 0.160156 16.550781 0.359375 15.84375 0.359375 C 15.164062 0.359375 14.644531 0.160156 14.28125 -0.234375 C 13.914062 -0.640625 13.734375 -1.171875 13.734375 -1.828125 L 13.734375 -3.859375 C 13.203125 -2.546875 12.363281 -1.515625 11.21875 -0.765625 C 10.070312 -0.015625 8.664062 0.359375 7 0.359375 C 5.414062 0.359375 4.109375 -0.09375 3.078125 -1 C 2.046875 -1.914062 1.53125 -3.257812 1.53125 -5.03125 C 1.53125 -6.65625 2.003906 -7.945312 2.953125 -8.90625 C 3.898438 -9.863281 5.238281 -10.5625 6.96875 -11 C 8.707031 -11.4375 10.78125 -11.679688 13.1875 -11.734375 C 13.15625 -12.703125 12.785156 -13.425781 12.078125 -13.90625 C 11.378906 -14.394531 10.460938 -14.640625 9.328125 -14.640625 C 8.523438 -14.640625 7.765625 -14.515625 7.046875 -14.265625 C 6.328125 -14.023438 5.691406 -13.738281 5.140625 -13.40625 C 5.035156 -13.332031 4.90625 -13.285156 4.75 -13.265625 C 4.59375 -13.253906 4.441406 -13.25 4.296875 -13.25 C 3.710938 -13.25 3.238281 -13.445312 2.875 -13.84375 C 2.507812 -14.25 2.328125 -14.707031 2.328125 -15.21875 C 2.328125 -15.507812 2.414062 -15.78125 2.59375 -16.03125 C 2.78125 -16.289062 2.957031 -16.507812 3.125 -16.6875 C 3.78125 -17.238281 4.679688 -17.691406 5.828125 -18.046875 C 6.972656 -18.398438 8.320312 -18.578125 9.875 -18.578125 Z M 13.1875 -8.015625 L 13.1875 -8.453125 C 10.632812 -8.421875 8.859375 -8.171875 7.859375 -7.703125 C 6.867188 -7.234375 6.375 -6.535156 6.375 -5.609375 C 6.375 -4.929688 6.613281 -4.421875 7.09375 -4.078125 C 7.582031 -3.734375 8.15625 -3.5625 8.8125 -3.5625 C 10.03125 -3.5625 11.0625 -3.96875 11.90625 -4.78125 C 12.757812 -5.601562 13.1875 -6.679688 13.1875 -8.015625 Z M 13.1875 -8.015625 "/>
            </g>
        </g>
    </g>
    <g fill="#219ebc" fill-opacity="1">
        <g transform="translate(295.022381, 198.37629)">
            <g>
                <path d="M 10.640625 -18.578125 C 11.828125 -18.578125 12.90625 -18.414062 13.875 -18.09375 C 14.84375 -17.78125 15.726562 -17.3125 16.53125 -16.6875 C 17.257812 -16.25 17.625 -15.640625 17.625 -14.859375 C 17.625 -14.222656 17.421875 -13.707031 17.015625 -13.3125 C 16.617188 -12.914062 16.109375 -12.71875 15.484375 -12.71875 C 15.234375 -12.71875 15.03125 -12.753906 14.875 -12.828125 C 14.71875 -12.898438 14.566406 -12.96875 14.421875 -13.03125 C 14.035156 -13.394531 13.515625 -13.691406 12.859375 -13.921875 C 12.203125 -14.160156 11.460938 -14.28125 10.640625 -14.28125 C 9.328125 -14.28125 8.285156 -13.835938 7.515625 -12.953125 C 6.753906 -12.066406 6.375 -10.785156 6.375 -9.109375 C 6.375 -7.429688 6.753906 -6.132812 7.515625 -5.21875 C 8.285156 -4.3125 9.328125 -3.859375 10.640625 -3.859375 C 11.460938 -3.859375 12.203125 -3.984375 12.859375 -4.234375 C 13.515625 -4.492188 14.035156 -4.804688 14.421875 -5.171875 C 14.566406 -5.242188 14.71875 -5.316406 14.875 -5.390625 C 15.03125 -5.460938 15.234375 -5.5 15.484375 -5.5 C 16.109375 -5.5 16.617188 -5.296875 17.015625 -4.890625 C 17.421875 -4.492188 17.625 -3.976562 17.625 -3.34375 C 17.625 -2.570312 17.257812 -1.96875 16.53125 -1.53125 C 15.726562 -0.925781 14.84375 -0.457031 13.875 -0.125 C 12.90625 0.195312 11.828125 0.359375 10.640625 0.359375 C 8.816406 0.359375 7.21875 -0.03125 5.84375 -0.8125 C 4.46875 -1.601562 3.398438 -2.707031 2.640625 -4.125 C 1.878906 -5.550781 1.5 -7.210938 1.5 -9.109375 C 1.5 -11.003906 1.878906 -12.660156 2.640625 -14.078125 C 3.398438 -15.492188 4.46875 -16.597656 5.84375 -17.390625 C 7.21875 -18.179688 8.816406 -18.578125 10.640625 -18.578125 Z M 10.640625 -18.578125 "/>
            </g>
        </g>
    </g>
    <g fill="#219ebc" fill-opacity="1">
        <g transform="translate(314.101271, 198.37629)">
            <g>
                <path d="M 4.59375 -25.859375 C 5.394531 -25.859375 6.003906 -25.625 6.421875 -25.15625 C 6.847656 -24.695312 7.0625 -24.082031 7.0625 -23.3125 L 7.0625 -11.25 L 8.890625 -11.25 L 15.046875 -17.84375 C 15.304688 -18.113281 15.585938 -18.300781 15.890625 -18.40625 C 16.203125 -18.519531 16.503906 -18.578125 16.796875 -18.578125 C 17.523438 -18.578125 18.113281 -18.332031 18.5625 -17.84375 C 19.007812 -17.363281 19.234375 -16.804688 19.234375 -16.171875 C 19.234375 -15.804688 19.148438 -15.472656 18.984375 -15.171875 C 18.828125 -14.867188 18.675781 -14.644531 18.53125 -14.5 L 13.546875 -9.0625 L 18.53125 -3.71875 C 18.675781 -3.570312 18.828125 -3.347656 18.984375 -3.046875 C 19.148438 -2.742188 19.234375 -2.410156 19.234375 -2.046875 C 19.234375 -1.429688 19.007812 -0.875 18.5625 -0.375 C 18.113281 0.113281 17.523438 0.359375 16.796875 0.359375 C 16.503906 0.359375 16.210938 0.296875 15.921875 0.171875 C 15.628906 0.0546875 15.347656 -0.117188 15.078125 -0.359375 L 8.84375 -6.953125 L 7.0625 -6.953125 L 7.0625 -2.1875 C 7.0625 -1.4375 6.847656 -0.820312 6.421875 -0.34375 C 6.003906 0.125 5.394531 0.359375 4.59375 0.359375 C 3.789062 0.359375 3.191406 0.125 2.796875 -0.34375 C 2.410156 -0.820312 2.21875 -1.4375 2.21875 -2.1875 L 2.21875 -23.3125 C 2.21875 -24.082031 2.410156 -24.695312 2.796875 -25.15625 C 3.191406 -25.625 3.789062 -25.859375 4.59375 -25.859375 Z M 4.59375 -25.859375 "/>
            </g>
        </g>
    </g>
    <g clip-path="url(#3fcc610797)">
        <g clip-path="url(#39fd420b3c)">
            <path fill="#219ebc" d="M 82.339844 156.867188 L 134.453125 156.867188 L 134.453125 208.980469 L 82.339844 208.980469 Z M 82.339844 156.867188 " fill-opacity="1" fill-rule="nonzero"/>
        </g>
    </g>
    <path fill="#023047" d="M 101.394531 170.871094 L 115.152344 170.871094 C 115.28125 170.871094 115.382812 170.769531 115.382812 170.640625 L 115.382812 169.953125 C 115.382812 169.824219 115.28125 169.722656 115.152344 169.722656 L 101.394531 169.722656 C 101.269531 169.722656 101.164062 169.824219 101.164062 169.953125 L 101.164062 170.640625 C 101.164062 170.769531 101.269531 170.871094 101.394531 170.871094 " fill-opacity="1" fill-rule="nonzero"/>
    <g clip-path="url(#bcb66a2c06)">
        <path fill="#023047" d="M 121.636719 197.496094 L 95.113281 197.496094 C 93.769531 197.496094 92.683594 196.40625 92.683594 195.0625 L 92.683594 178.875 L 124.070312 178.875 L 124.070312 195.0625 C 124.070312 196.40625 122.980469 197.496094 121.636719 197.496094 Z M 121.636719 169.722656 L 119.066406 169.722656 C 118.9375 169.722656 118.835938 169.824219 118.835938 169.953125 L 118.835938 170.640625 C 118.835938 170.769531 118.9375 170.871094 119.066406 170.871094 L 121.636719 170.871094 C 122.980469 170.871094 124.070312 171.960938 124.070312 173.304688 L 124.070312 177.722656 L 92.683594 177.722656 L 92.683594 173.304688 C 92.683594 171.960938 93.773438 170.871094 95.113281 170.871094 L 97.484375 170.871094 C 97.609375 170.871094 97.714844 170.769531 97.714844 170.640625 L 97.714844 169.953125 C 97.714844 169.824219 97.609375 169.722656 97.484375 169.722656 L 95.113281 169.722656 C 93.140625 169.722656 91.53125 171.328125 91.53125 173.304688 L 91.53125 195.0625 C 91.53125 197.03125 93.144531 198.644531 95.113281 198.644531 L 121.636719 198.644531 C 123.609375 198.644531 125.21875 197.03125 125.21875 195.0625 L 125.21875 173.304688 C 125.21875 171.328125 123.613281 169.722656 121.636719 169.722656 " fill-opacity="1" fill-rule="nonzero"/>
    </g>
    <g clip-path="url(#f784b68398)">
        <path fill="#023047" d="M 99.441406 173.671875 C 100.011719 173.671875 100.476562 173.210938 100.476562 172.636719 L 100.476562 168.527344 C 100.476562 167.953125 100.011719 167.488281 99.441406 167.488281 C 98.867188 167.488281 98.40625 167.953125 98.40625 168.527344 L 98.40625 172.636719 C 98.40625 173.210938 98.867188 173.671875 99.441406 173.671875 " fill-opacity="1" fill-rule="nonzero"/>
    </g>
    <g clip-path="url(#75b6a3a1c9)">
        <path fill="#023047" d="M 117.109375 173.390625 C 117.679688 173.390625 118.144531 172.925781 118.144531 172.355469 L 118.144531 168.238281 C 118.144531 167.667969 117.679688 167.203125 117.109375 167.203125 C 116.535156 167.203125 116.074219 167.667969 116.074219 168.238281 L 116.074219 172.355469 C 116.074219 172.925781 116.535156 173.390625 117.109375 173.390625 " fill-opacity="1" fill-rule="nonzero"/>
    </g>
    <g fill="#ffffff" fill-opacity="1">
        <g transform="translate(100.386459, 191.317239)">
            <g>
                <path d="M 3.296875 0.140625 C 2.472656 0.140625 1.804688 -0.15625 1.296875 -0.75 C 0.796875 -1.34375 0.546875 -2.171875 0.546875 -3.234375 C 0.546875 -4.085938 0.707031 -4.878906 1.03125 -5.609375 C 1.363281 -6.347656 1.84375 -6.941406 2.46875 -7.390625 C 3.09375 -7.835938 3.765625 -8.0625 4.484375 -8.0625 C 5.210938 -8.0625 5.8125 -7.914062 6.28125 -7.625 C 6.757812 -7.34375 7 -6.96875 7 -6.5 C 7 -6.03125 6.867188 -5.660156 6.609375 -5.390625 C 6.304688 -5.390625 5.957031 -5.453125 5.5625 -5.578125 C 5.164062 -5.703125 4.875 -5.847656 4.6875 -6.015625 L 4.890625 -7.125 C 4.734375 -7.195312 4.582031 -7.234375 4.4375 -7.234375 C 3.988281 -7.234375 3.597656 -6.851562 3.265625 -6.09375 C 2.929688 -5.332031 2.765625 -4.441406 2.765625 -3.421875 C 2.765625 -1.890625 3.195312 -1.125 4.0625 -1.125 C 4.582031 -1.125 5.160156 -1.40625 5.796875 -1.96875 L 6.328125 -1.4375 C 6.265625 -1.332031 6.109375 -1.164062 5.859375 -0.9375 C 5.609375 -0.71875 5.367188 -0.539062 5.140625 -0.40625 C 4.921875 -0.269531 4.644531 -0.144531 4.3125 -0.03125 C 3.976562 0.0820312 3.640625 0.140625 3.296875 0.140625 Z M 3.296875 0.140625 "/>
            </g>
        </g>
    </g>
    <g fill="#ffffff" fill-opacity="1">
        <g transform="translate(106.954473, 191.317239)">
            <g>
                <path d="M 5.890625 -4.59375 C 5.722656 -4.101562 5.582031 -3.519531 5.46875 -2.84375 C 5.363281 -2.164062 5.3125 -1.691406 5.3125 -1.421875 C 5.3125 -1.148438 5.351562 -1.015625 5.4375 -1.015625 L 6 -1.1875 L 6.203125 -0.609375 C 5.960938 -0.421875 5.65625 -0.25 5.28125 -0.09375 C 4.90625 0.0625 4.570312 0.140625 4.28125 0.140625 C 3.789062 0.140625 3.476562 -0.0703125 3.34375 -0.5 C 2.75 -0.0703125 2.222656 0.140625 1.765625 0.140625 C 1.304688 0.140625 0.953125 -0.0234375 0.703125 -0.359375 C 0.453125 -0.691406 0.328125 -1.171875 0.328125 -1.796875 C 0.328125 -2.648438 0.546875 -3.398438 0.984375 -4.046875 C 1.421875 -4.703125 2 -5.03125 2.71875 -5.03125 C 3.113281 -5.03125 3.519531 -4.921875 3.9375 -4.703125 C 3.988281 -4.835938 4.035156 -4.9375 4.078125 -5 C 4.617188 -5 5.222656 -4.863281 5.890625 -4.59375 Z M 2.46875 -1.9375 C 2.46875 -1.550781 2.492188 -1.304688 2.546875 -1.203125 C 2.597656 -1.109375 2.695312 -1.0625 2.84375 -1.0625 C 2.988281 -1.0625 3.128906 -1.117188 3.265625 -1.234375 C 3.296875 -2.117188 3.4375 -3.039062 3.6875 -4 C 3.570312 -4.0625 3.441406 -4.09375 3.296875 -4.09375 C 3.148438 -4.09375 3.015625 -4.007812 2.890625 -3.84375 C 2.773438 -3.675781 2.691406 -3.46875 2.640625 -3.21875 C 2.523438 -2.75 2.46875 -2.320312 2.46875 -1.9375 Z M 2.46875 -1.9375 "/>
            </g>
        </g>
    </g>
    <g fill="#ffffff" fill-opacity="1">
        <g transform="translate(112.988407, 191.317239)">
            <g>
                <path d="M 3.40625 -0.640625 C 3.164062 -0.421875 2.847656 -0.234375 2.453125 -0.078125 C 2.054688 0.0664062 1.695312 0.140625 1.375 0.140625 C 1.050781 0.140625 0.785156 0.046875 0.578125 -0.140625 C 0.378906 -0.328125 0.28125 -0.59375 0.28125 -0.9375 C 0.28125 -1.289062 0.472656 -2.265625 0.859375 -3.859375 C 1.242188 -5.453125 1.4375 -6.632812 1.4375 -7.40625 C 1.4375 -7.570312 1.410156 -7.785156 1.359375 -8.046875 C 2.078125 -8.242188 2.769531 -8.34375 3.4375 -8.34375 C 3.5 -8.21875 3.53125 -8.019531 3.53125 -7.75 C 3.53125 -7.226562 3.335938 -6.101562 2.953125 -4.375 C 2.578125 -2.644531 2.390625 -1.644531 2.390625 -1.375 C 2.390625 -1.113281 2.429688 -0.984375 2.515625 -0.984375 C 2.597656 -0.984375 2.765625 -1.035156 3.015625 -1.140625 L 3.140625 -1.1875 Z M 3.40625 -0.640625 "/>
            </g>
        </g>
    </g>
</svg>