<svg xmlns="http://www.w3.org/2000/svg" xmlns:xlink="http://www.w3.org/1999/xlink" width="359" zoomAndPan="magnify" viewBox="0 0 269.25 228.749994" height="305" preserveAspectRatio="xMidYMid meet" version="1.0"><defs><g/><clipPath id="49329eb5d9"><path d="M 63.210938 0.191406 L 202.636719 0.191406 L 202.636719 139.621094 L 63.210938 139.621094 Z M 63.210938 0.191406 " clip-rule="nonzero"/></clipPath><clipPath id="d10fb88c3c"><path d="M 132.925781 0.191406 C 94.421875 0.191406 63.210938 31.40625 63.210938 69.90625 C 63.210938 108.40625 94.421875 139.621094 132.925781 139.621094 C 171.425781 139.621094 202.636719 108.40625 202.636719 69.90625 C 202.636719 31.40625 171.425781 0.191406 132.925781 0.191406 Z M 132.925781 0.191406 " clip-rule="nonzero"/></clipPath><clipPath id="88c8da468a"><path d="M 87.800781 34.574219 L 177.933594 34.574219 L 177.933594 111.613281 L 87.800781 111.613281 Z M 87.800781 34.574219 " clip-rule="nonzero"/></clipPath><clipPath id="4e731d1c98"><path d="M 153 27.847656 L 160 27.847656 L 160 45 L 153 45 Z M 153 27.847656 " clip-rule="nonzero"/></clipPath></defs><g clip-path="url(#49329eb5d9)"><g clip-path="url(#d10fb88c3c)"><path fill="#219ebc" d="M 63.210938 0.191406 L 202.636719 0.191406 L 202.636719 139.621094 L 63.210938 139.621094 Z M 63.210938 0.191406 " fill-opacity="1" fill-rule="nonzero"/></g></g><path fill="#023047" d="M 114.191406 37.660156 L 151.003906 37.660156 C 151.34375 37.660156 151.617188 37.382812 151.617188 37.042969 L 151.617188 35.195312 C 151.617188 34.855469 151.34375 34.582031 151.003906 34.582031 L 114.191406 34.582031 C 113.851562 34.582031 113.578125 34.855469 113.578125 35.195312 L 113.578125 37.042969 C 113.578125 37.382812 113.851562 37.660156 114.191406 37.660156 " fill-opacity="1" fill-rule="nonzero"/><g clip-path="url(#88c8da468a)"><path fill="#023047" d="M 168.351562 108.886719 L 97.386719 108.886719 C 93.792969 108.886719 90.878906 105.972656 90.878906 102.378906 L 90.878906 59.066406 L 174.855469 59.066406 L 174.855469 102.378906 C 174.855469 105.972656 171.945312 108.886719 168.351562 108.886719 Z M 168.351562 34.582031 L 161.46875 34.582031 C 161.128906 34.582031 160.851562 34.855469 160.851562 35.195312 L 160.851562 37.042969 C 160.851562 37.382812 161.128906 37.660156 161.46875 37.660156 L 168.351562 37.660156 C 171.941406 37.660156 174.855469 40.574219 174.855469 44.171875 L 174.855469 55.988281 L 90.878906 55.988281 L 90.878906 44.171875 C 90.878906 40.574219 93.796875 37.660156 97.386719 37.660156 L 103.726562 37.660156 C 104.066406 37.660156 104.34375 37.382812 104.34375 37.042969 L 104.34375 35.195312 C 104.34375 34.855469 104.066406 34.582031 103.726562 34.582031 L 97.386719 34.582031 C 92.105469 34.582031 87.800781 38.882812 87.800781 44.171875 L 87.800781 102.378906 C 87.800781 107.652344 92.117188 111.964844 97.386719 111.964844 L 168.351562 111.964844 C 173.621094 111.964844 177.933594 107.652344 177.933594 102.378906 L 177.933594 44.171875 C 177.933594 38.882812 173.632812 34.582031 168.351562 34.582031 " fill-opacity="1" fill-rule="nonzero"/></g><path fill="#023047" d="M 108.960938 45.148438 C 110.484375 45.148438 111.730469 43.914062 111.730469 42.378906 L 111.730469 31.378906 C 111.730469 29.847656 110.484375 28.609375 108.960938 28.609375 C 107.425781 28.609375 106.191406 29.847656 106.191406 31.378906 L 106.191406 42.378906 C 106.191406 43.914062 107.425781 45.148438 108.960938 45.148438 " fill-opacity="1" fill-rule="nonzero"/><g clip-path="url(#4e731d1c98)"><path fill="#023047" d="M 156.234375 44.394531 C 157.761719 44.394531 159.003906 43.148438 159.003906 41.621094 L 159.003906 30.617188 C 159.003906 29.089844 157.761719 27.847656 156.234375 27.847656 C 154.703125 27.847656 153.464844 29.089844 153.464844 30.617188 L 153.464844 41.621094 C 153.464844 43.148438 154.703125 44.394531 156.234375 44.394531 " fill-opacity="1" fill-rule="nonzero"/></g><g fill="#023047" fill-opacity="1"><g transform="translate(39.410313, 177.979672)"><g><path d="M 14.238281 -25.785156 C 6.574219 -25.785156 1.453125 -20.773438 1.453125 -12.710938 C 1.453125 -4.648438 6.574219 0.363281 14.238281 0.363281 C 17.796875 0.363281 20.59375 -0.835938 22.371094 -2.289062 C 22.953125 -2.761719 23.28125 -3.414062 23.28125 -4.175781 C 23.28125 -5.628906 22.410156 -6.5 20.882812 -6.5 C 20.410156 -6.5 20.121094 -6.390625 19.722656 -6.136719 C 18.125 -4.976562 16.453125 -4.320312 14.238281 -4.320312 C 9.660156 -4.320312 6.71875 -7.410156 6.71875 -12.710938 C 6.71875 -18.015625 9.660156 -21.101562 14.238281 -21.101562 C 16.453125 -21.101562 18.125 -20.449219 19.722656 -19.285156 C 20.121094 -19.03125 20.410156 -18.921875 20.882812 -18.921875 C 22.410156 -18.921875 23.28125 -19.792969 23.28125 -21.246094 C 23.28125 -22.007812 22.953125 -22.664062 22.371094 -23.136719 C 20.59375 -24.585938 17.796875 -25.785156 14.238281 -25.785156 Z M 14.238281 -25.785156 "/></g></g></g><g fill="#023047" fill-opacity="1"><g transform="translate(64.173023, 177.979672)"><g><path d="M 9.84375 -18.523438 C 6.71875 -18.523438 4.429688 -17.722656 3.125 -16.632812 C 2.761719 -16.308594 2.324219 -15.761719 2.324219 -15.179688 C 2.324219 -14.164062 3.125 -13.21875 4.285156 -13.21875 C 4.578125 -13.21875 4.902344 -13.21875 5.121094 -13.367188 C 6.210938 -14.019531 7.699219 -14.601562 9.296875 -14.601562 C 11.585938 -14.601562 13.074219 -13.621094 13.148438 -11.695312 C 5.957031 -11.550781 1.527344 -9.84375 1.527344 -5.011719 C 1.527344 -1.453125 3.8125 0.363281 6.972656 0.363281 C 10.316406 0.363281 12.601562 -1.234375 13.691406 -3.851562 L 13.691406 -1.816406 C 13.691406 -0.507812 14.417969 0.363281 15.796875 0.363281 C 17.179688 0.363281 17.867188 -0.507812 17.867188 -1.816406 L 17.867188 -11.257812 C 17.867188 -15.945312 15.144531 -18.523438 9.84375 -18.523438 Z M 13.148438 -7.988281 C 13.148438 -5.300781 11.1875 -3.558594 8.789062 -3.558594 C 7.480469 -3.558594 6.355469 -4.214844 6.355469 -5.59375 C 6.355469 -7.445312 8.0625 -8.351562 13.148438 -8.425781 Z M 13.148438 -7.988281 "/></g></g></g><g fill="#023047" fill-opacity="1"><g transform="translate(84.142942, 177.979672)"><g><path d="M 4.578125 -25.785156 C 2.976562 -25.785156 2.214844 -24.769531 2.214844 -23.242188 L 2.214844 -2.179688 C 2.214844 -0.691406 2.976562 0.363281 4.578125 0.363281 C 6.175781 0.363281 7.046875 -0.691406 7.046875 -2.179688 L 7.046875 -23.242188 C 7.046875 -24.769531 6.175781 -25.785156 4.578125 -25.785156 Z M 4.578125 -25.785156 "/></g></g></g><g fill="#023047" fill-opacity="1"><g transform="translate(93.292801, 177.979672)"><g><path d="M 10.605469 -18.523438 C 4.867188 -18.523438 1.527344 -14.746094 1.527344 -8.972656 C 1.527344 -3.414062 4.792969 0.363281 11.1875 0.363281 C 13.835938 0.363281 16.269531 -0.289062 17.867188 -1.597656 C 18.230469 -1.886719 18.59375 -2.359375 18.59375 -2.976562 C 18.59375 -4.066406 17.832031 -4.9375 16.742188 -4.9375 C 16.234375 -4.9375 15.90625 -4.832031 15.542969 -4.578125 C 14.746094 -3.851562 13.148438 -3.488281 11.839844 -3.488281 C 9.007812 -3.488281 7.046875 -4.792969 6.5 -7.445312 L 18.230469 -7.445312 C 19.210938 -7.445312 19.722656 -8.171875 19.722656 -8.972656 C 19.722656 -14.746094 16.34375 -18.523438 10.605469 -18.523438 Z M 14.78125 -10.714844 L 6.429688 -10.714844 C 6.792969 -13.367188 8.246094 -14.671875 10.605469 -14.671875 C 12.894531 -14.671875 14.382812 -13.367188 14.78125 -10.714844 Z M 14.78125 -10.714844 "/></g></g></g><g fill="#023047" fill-opacity="1"><g transform="translate(114.424608, 177.979672)"><g><path d="M 4.320312 -18.523438 C 2.941406 -18.523438 2.214844 -17.652344 2.214844 -16.308594 L 2.214844 -2.179688 C 2.214844 -0.691406 2.976562 0.363281 4.578125 0.363281 C 6.175781 0.363281 7.046875 -0.691406 7.046875 -2.179688 L 7.046875 -10.714844 C 7.046875 -12.964844 8.28125 -14.308594 10.386719 -14.308594 C 12.492188 -14.308594 13.765625 -12.964844 13.765625 -10.714844 L 13.765625 -2.179688 C 13.765625 -0.691406 14.5625 0.363281 16.160156 0.363281 C 17.761719 0.363281 18.59375 -0.691406 18.59375 -2.179688 L 18.59375 -11.839844 C 18.59375 -16.125 16.269531 -18.523438 12.203125 -18.523438 C 9.40625 -18.523438 7.480469 -17.179688 6.464844 -14.964844 L 6.464844 -16.308594 C 6.464844 -17.652344 5.703125 -18.523438 4.320312 -18.523438 Z M 4.320312 -18.523438 "/></g></g></g><g fill="#219ebc" fill-opacity="1"><g transform="translate(135.050153, 177.979672)"><g><path d="M 2.976562 -25.421875 C 1.671875 -25.421875 0.652344 -24.371094 0.652344 -23.0625 C 0.652344 -21.753906 1.671875 -20.703125 2.976562 -20.703125 L 7.84375 -20.703125 L 7.84375 -2.398438 C 7.84375 -0.726562 8.714844 0.363281 10.460938 0.363281 C 12.203125 0.363281 13.109375 -0.726562 13.109375 -2.398438 L 13.109375 -20.703125 L 17.941406 -20.703125 C 19.25 -20.703125 20.300781 -21.753906 20.300781 -23.0625 C 20.300781 -24.371094 19.25 -25.421875 17.941406 -25.421875 Z M 2.976562 -25.421875 "/></g></g></g><g fill="#219ebc" fill-opacity="1"><g transform="translate(155.891493, 177.979672)"><g><path d="M 4.320312 -18.523438 C 2.941406 -18.523438 2.214844 -17.652344 2.214844 -16.308594 L 2.214844 -2.179688 C 2.214844 -0.691406 2.976562 0.363281 4.578125 0.363281 C 6.175781 0.363281 7.046875 -0.691406 7.046875 -2.179688 L 7.046875 -8.933594 C 7.046875 -12.058594 8.5 -14.382812 11.332031 -14.382812 C 12.566406 -14.382812 13.511719 -15.179688 13.511719 -16.417969 C 13.511719 -17.761719 12.566406 -18.59375 11.332031 -18.59375 C 8.863281 -18.59375 7.300781 -17.140625 6.464844 -14.746094 L 6.464844 -16.308594 C 6.464844 -17.652344 5.703125 -18.523438 4.320312 -18.523438 Z M 4.320312 -18.523438 "/></g></g></g><g fill="#219ebc" fill-opacity="1"><g transform="translate(169.906747, 177.979672)"><g><path d="M 9.84375 -18.523438 C 6.71875 -18.523438 4.429688 -17.722656 3.125 -16.632812 C 2.761719 -16.308594 2.324219 -15.761719 2.324219 -15.179688 C 2.324219 -14.164062 3.125 -13.21875 4.285156 -13.21875 C 4.578125 -13.21875 4.902344 -13.21875 5.121094 -13.367188 C 6.210938 -14.019531 7.699219 -14.601562 9.296875 -14.601562 C 11.585938 -14.601562 13.074219 -13.621094 13.148438 -11.695312 C 5.957031 -11.550781 1.527344 -9.84375 1.527344 -5.011719 C 1.527344 -1.453125 3.8125 0.363281 6.972656 0.363281 C 10.316406 0.363281 12.601562 -1.234375 13.691406 -3.851562 L 13.691406 -1.816406 C 13.691406 -0.507812 14.417969 0.363281 15.796875 0.363281 C 17.179688 0.363281 17.867188 -0.507812 17.867188 -1.816406 L 17.867188 -11.257812 C 17.867188 -15.945312 15.144531 -18.523438 9.84375 -18.523438 Z M 13.148438 -7.988281 C 13.148438 -5.300781 11.1875 -3.558594 8.789062 -3.558594 C 7.480469 -3.558594 6.355469 -4.214844 6.355469 -5.59375 C 6.355469 -7.445312 8.0625 -8.351562 13.148438 -8.425781 Z M 13.148438 -7.988281 "/></g></g></g><g fill="#219ebc" fill-opacity="1"><g transform="translate(189.876666, 177.979672)"><g><path d="M 10.605469 -18.523438 C 5.121094 -18.523438 1.488281 -14.746094 1.488281 -9.078125 C 1.488281 -3.414062 5.121094 0.363281 10.605469 0.363281 C 12.964844 0.363281 14.890625 -0.289062 16.488281 -1.527344 C 17.214844 -1.960938 17.578125 -2.507812 17.578125 -3.339844 C 17.578125 -4.613281 16.707031 -5.484375 15.433594 -5.484375 C 14.964844 -5.484375 14.671875 -5.300781 14.382812 -5.15625 C 13.582031 -4.429688 12.238281 -3.851562 10.605469 -3.851562 C 7.988281 -3.851562 6.355469 -5.738281 6.355469 -9.078125 C 6.355469 -12.421875 7.988281 -14.238281 10.605469 -14.238281 C 12.238281 -14.238281 13.582031 -13.730469 14.382812 -13.003906 C 14.671875 -12.855469 14.964844 -12.675781 15.433594 -12.675781 C 16.707031 -12.675781 17.578125 -13.546875 17.578125 -14.816406 C 17.578125 -15.652344 17.214844 -16.199219 16.488281 -16.632812 C 14.890625 -17.867188 12.964844 -18.523438 10.605469 -18.523438 Z M 10.605469 -18.523438 "/></g></g></g><g fill="#219ebc" fill-opacity="1"><g transform="translate(208.90256, 177.979672)"><g><path d="M 4.578125 -25.785156 C 2.976562 -25.785156 2.214844 -24.769531 2.214844 -23.242188 L 2.214844 -2.179688 C 2.214844 -0.691406 2.976562 0.363281 4.578125 0.363281 C 6.175781 0.363281 7.046875 -0.691406 7.046875 -2.179688 L 7.046875 -6.9375 L 8.824219 -6.9375 L 15.035156 -0.363281 C 15.542969 0.144531 16.160156 0.363281 16.742188 0.363281 C 18.195312 0.363281 19.175781 -0.800781 19.175781 -2.035156 C 19.175781 -2.761719 18.777344 -3.414062 18.484375 -3.703125 L 13.511719 -9.042969 L 18.484375 -14.453125 C 18.777344 -14.746094 19.175781 -15.398438 19.175781 -16.125 C 19.175781 -17.359375 18.195312 -18.523438 16.742188 -18.523438 C 16.160156 -18.523438 15.507812 -18.304688 15 -17.796875 L 8.863281 -11.222656 L 7.046875 -11.222656 L 7.046875 -23.242188 C 7.046875 -24.769531 6.175781 -25.785156 4.578125 -25.785156 Z M 4.578125 -25.785156 "/></g></g></g><g fill="#ffffff" fill-opacity="1"><g transform="translate(111.492794, 92.359376)"><g><path d="M 8.8125 0.359375 C 6.625 0.359375 4.847656 -0.425781 3.484375 -2 C 2.128906 -3.582031 1.453125 -5.804688 1.453125 -8.671875 C 1.453125 -10.960938 1.894531 -13.082031 2.78125 -15.03125 C 3.664062 -16.988281 4.941406 -18.570312 6.609375 -19.78125 C 8.285156 -20.988281 10.085938 -21.59375 12.015625 -21.59375 C 13.953125 -21.59375 15.554688 -21.207031 16.828125 -20.4375 C 18.097656 -19.664062 18.734375 -18.65625 18.734375 -17.40625 C 18.734375 -16.15625 18.390625 -15.164062 17.703125 -14.4375 C 16.890625 -14.4375 15.953125 -14.597656 14.890625 -14.921875 C 13.835938 -15.253906 13.050781 -15.648438 12.53125 -16.109375 L 13.109375 -19.0625 C 12.679688 -19.269531 12.265625 -19.375 11.859375 -19.375 C 10.679688 -19.375 9.644531 -18.351562 8.75 -16.3125 C 7.863281 -14.269531 7.421875 -11.882812 7.421875 -9.15625 C 7.421875 -5.0625 8.578125 -3.015625 10.890625 -3.015625 C 12.265625 -3.015625 13.800781 -3.765625 15.5 -5.265625 L 16.9375 -3.828125 C 16.769531 -3.566406 16.351562 -3.132812 15.6875 -2.53125 C 15.019531 -1.9375 14.382812 -1.457031 13.78125 -1.09375 C 13.1875 -0.726562 12.4375 -0.394531 11.53125 -0.09375 C 10.632812 0.207031 9.726562 0.359375 8.8125 0.359375 Z M 8.8125 0.359375 "/></g></g></g><g fill="#ffffff" fill-opacity="1"><g transform="translate(129.065557, 92.359376)"><g><path d="M 15.75 -12.3125 C 15.320312 -11 14.957031 -9.429688 14.65625 -7.609375 C 14.351562 -5.796875 14.203125 -4.53125 14.203125 -3.8125 C 14.203125 -3.09375 14.3125 -2.734375 14.53125 -2.734375 L 16.046875 -3.15625 L 16.609375 -1.640625 C 15.953125 -1.128906 15.125 -0.664062 14.125 -0.25 C 13.125 0.15625 12.238281 0.359375 11.46875 0.359375 C 10.144531 0.359375 9.3125 -0.207031 8.96875 -1.34375 C 7.363281 -0.207031 5.945312 0.359375 4.71875 0.359375 C 3.5 0.359375 2.550781 -0.0820312 1.875 -0.96875 C 1.207031 -1.863281 0.875 -3.140625 0.875 -4.796875 C 0.875 -7.085938 1.460938 -9.101562 2.640625 -10.84375 C 3.816406 -12.59375 5.367188 -13.46875 7.296875 -13.46875 C 8.347656 -13.46875 9.421875 -13.175781 10.515625 -12.59375 C 10.679688 -12.957031 10.816406 -13.21875 10.921875 -13.375 C 12.378906 -13.375 13.988281 -13.019531 15.75 -12.3125 Z M 6.59375 -5.1875 C 6.59375 -4.164062 6.664062 -3.519531 6.8125 -3.25 C 6.957031 -2.988281 7.21875 -2.859375 7.59375 -2.859375 C 7.976562 -2.859375 8.359375 -3.007812 8.734375 -3.3125 C 8.804688 -5.664062 9.1875 -8.128906 9.875 -10.703125 C 9.570312 -10.890625 9.222656 -10.984375 8.828125 -10.984375 C 8.429688 -10.984375 8.078125 -10.757812 7.765625 -10.3125 C 7.453125 -9.863281 7.210938 -9.304688 7.046875 -8.640625 C 6.742188 -7.359375 6.59375 -6.207031 6.59375 -5.1875 Z M 6.59375 -5.1875 "/></g></g></g><g fill="#ffffff" fill-opacity="1"><g transform="translate(145.209386, 92.359376)"><g><path d="M 9.125 -1.703125 C 8.476562 -1.128906 7.625 -0.640625 6.5625 -0.234375 C 5.507812 0.160156 4.550781 0.359375 3.6875 0.359375 C 2.832031 0.359375 2.128906 0.113281 1.578125 -0.375 C 1.035156 -0.875 0.765625 -1.585938 0.765625 -2.515625 C 0.765625 -3.453125 1.273438 -6.050781 2.296875 -10.3125 C 3.316406 -14.582031 3.828125 -17.753906 3.828125 -19.828125 C 3.828125 -20.273438 3.769531 -20.84375 3.65625 -21.53125 C 5.550781 -22.050781 7.394531 -22.3125 9.1875 -22.3125 C 9.363281 -21.988281 9.453125 -21.460938 9.453125 -20.734375 C 9.453125 -19.359375 8.941406 -16.351562 7.921875 -11.71875 C 6.898438 -7.09375 6.390625 -4.421875 6.390625 -3.703125 C 6.390625 -2.992188 6.507812 -2.640625 6.75 -2.640625 C 6.945312 -2.640625 7.382812 -2.773438 8.0625 -3.046875 L 8.390625 -3.1875 Z M 9.125 -1.703125 "/></g></g></g></svg>